/* XPM */
static const char *uncollageFrm_leftBtn_XPM[]={
/* uncollageFrm_leftBtn */
"150 50 2 1",
"      c None",
"0     c #FFFFFF",
"                                                                                                                                                      ",
"                                                                                                                                                      ",
"                                                                                                                                                      ",
"   000000000000000000000000000000000000000000000000000000000000000000000000000000000000000000000000000000000000000000000000000000000000000000000000   ",
"   000000000000000000000000000000000000000000000000000000000000000000000000000000000000000000000000000000000000000000000000000000000000000000000000   ",
"   000000000000000000000000000000000000000000000000000000000000000000000000000000000000000000000000000000000000000000000000000000000000000000000000   ",
"   000000000000000000000000000000000000000000000000000000000000000000000000000000000000000000000000000000000000000000000000000000000000000000000000   ",
"   000000000000000000000000000000000000000000000000000000000000000000000000000000000000000000000000000000000000000000000000000000000000000000000000   ",
"   000000000000000000000000000000000000000000000000000000000000000000000000000000000000000000000000000000000000000000000000000000000000000000000000   ",
"   000000000000000000000000000000000000000000000000000000000000000000000000000000000000000000000000000000000000000000000000000000000000000000000000   ",
"   000000000000000000000000000000000000000000000000000000000000000000000000000000000000000000000000000000000000000000000000000000000000000000000000   ",
"   000000000000000000000000000000000000000000000000000000000000000000000000000000000000000000000000000000000000000000000000000000000000000000000000   ",
"   0000000000000000000000000000000000000000000000000000000000000000000000000  000000000000000000000000000000000000000000000000000000000000000000000   ",
"   000000000000000000000000000000000000000000000000000000000000000000000000   000000000000000000000000000000000000000000000000000000000000000000000   ",
"   00000000000000000000000000000000000000000000000000000000000000000000000    000000000000000000000000000000000000000000000000000000000000000000000   ",
"   0000000000000000000000000000000000000000000000000000000000000000000000     000000000000000000000000000000000000000000000000000000000000000000000   ",
"   000000000000000000000000000000000000000000000000000000000000000000000      000000000000000000000000000000000000000000000000000000000000000000000   ",
"   00000000000000000000000000000000000000000000000000000000000000000000       000000000000000000000000000000000000000000000000000000000000000000000   ",
"   0000000000000000000000000000000000000000000000000000000000000000000                    000000000000000000000000000000000000000000000000000000000   ",
"   000000000000000000000000000000000000000000000000000000000000000000                      00000000000000000000000000000000000000000000000000000000   ",
"   00000000000000000000000000000000000000000000000000000000000000000                       00000000000000000000000000000000000000000000000000000000   ",
"   0000000000000000000000000000000000000000000000000000000000000000                        00000000000000000000000000000000000000000000000000000000   ",
"   000000000000000000000000000000000000000000000000000000000000000                         00000000000000000000000000000000000000000000000000000000   ",
"   00000000000000000000000000000000000000000000000000000000000000                          00000000000000000000000000000000000000000000000000000000   ",
"   0000000000000000000000000000000000000000000000000000000000000                           00000000000000000000000000000000000000000000000000000000   ",
"   000000000000000000000000000000000000000000000000000000000000                            00000000000000000000000000000000000000000000000000000000   ",
"   000000000000000000000000000000000000000000000000000000000000                            00000000000000000000000000000000000000000000000000000000   ",
"   0000000000000000000000000000000000000000000000000000000000000                           00000000000000000000000000000000000000000000000000000000   ",
"   00000000000000000000000000000000000000000000000000000000000000                          00000000000000000000000000000000000000000000000000000000   ",
"   000000000000000000000000000000000000000000000000000000000000000                         00000000000000000000000000000000000000000000000000000000   ",
"   0000000000000000000000000000000000000000000000000000000000000000                        00000000000000000000000000000000000000000000000000000000   ",
"   00000000000000000000000000000000000000000000000000000000000000000                       00000000000000000000000000000000000000000000000000000000   ",
"   000000000000000000000000000000000000000000000000000000000000000000                      00000000000000000000000000000000000000000000000000000000   ",
"   0000000000000000000000000000000000000000000000000000000000000000000                    000000000000000000000000000000000000000000000000000000000   ",
"   00000000000000000000000000000000000000000000000000000000000000000000       000000000000000000000000000000000000000000000000000000000000000000000   ",
"   000000000000000000000000000000000000000000000000000000000000000000000      000000000000000000000000000000000000000000000000000000000000000000000   ",
"   0000000000000000000000000000000000000000000000000000000000000000000000     000000000000000000000000000000000000000000000000000000000000000000000   ",
"   00000000000000000000000000000000000000000000000000000000000000000000000    000000000000000000000000000000000000000000000000000000000000000000000   ",
"   000000000000000000000000000000000000000000000000000000000000000000000000   000000000000000000000000000000000000000000000000000000000000000000000   ",
"   0000000000000000000000000000000000000000000000000000000000000000000000000  000000000000000000000000000000000000000000000000000000000000000000000   ",
"   000000000000000000000000000000000000000000000000000000000000000000000000000000000000000000000000000000000000000000000000000000000000000000000000   ",
"   000000000000000000000000000000000000000000000000000000000000000000000000000000000000000000000000000000000000000000000000000000000000000000000000   ",
"   000000000000000000000000000000000000000000000000000000000000000000000000000000000000000000000000000000000000000000000000000000000000000000000000   ",
"   000000000000000000000000000000000000000000000000000000000000000000000000000000000000000000000000000000000000000000000000000000000000000000000000   ",
"   000000000000000000000000000000000000000000000000000000000000000000000000000000000000000000000000000000000000000000000000000000000000000000000000   ",
"   000000000000000000000000000000000000000000000000000000000000000000000000000000000000000000000000000000000000000000000000000000000000000000000000   ",
"   000000000000000000000000000000000000000000000000000000000000000000000000000000000000000000000000000000000000000000000000000000000000000000000000   ",
"                                                                                                                                                      ",
"                                                                                                                                                      ",
"                                                                                                                                                      "};

